<svg xmlns="http://www.w3.org/2000/svg" xmlns:xlink="http://www.w3.org/1999/xlink" version="1.1" width="256" height="256" viewBox="0 0 256 256" xml:space="preserve">

<defs>
</defs>
<g style="stroke: none; stroke-width: 0; stroke-dasharray: none; stroke-linecap: butt; stroke-linejoin: miter; stroke-miterlimit: 10; fill: none; fill-rule: nonzero; opacity: 1;" transform="translate(1.4065934065934016 1.4065934065934016) scale(2.81 2.81)" >
	<path d="M 7.288 48.34 c 0.061 0.04 0.129 0.068 0.193 0.105 c 0.18 0.105 0.363 0.201 0.559 0.277 c 0.093 0.036 0.19 0.06 0.286 0.089 c 0.175 0.053 0.351 0.098 0.535 0.127 c 0.049 0.008 0.094 0.028 0.144 0.034 C 9.164 48.99 9.322 49 9.481 49 c 0 0 0 0 0.001 0 c 0 0 0 0 0 0 c 0 0 0 0 0 0 c 0.267 0 0.531 -0.028 0.79 -0.08 c 0.154 -0.031 0.297 -0.086 0.443 -0.134 c 0.101 -0.033 0.206 -0.054 0.304 -0.094 c 0.162 -0.067 0.31 -0.158 0.46 -0.245 c 0.075 -0.043 0.156 -0.075 0.228 -0.124 c 0.217 -0.146 0.42 -0.311 0.604 -0.495 c 0 0 0 0 0 0 l 7.492 -7.492 c 1.562 -1.562 1.562 -4.095 0 -5.657 c -1.149 -1.149 -2.822 -1.445 -4.249 -0.903 c 4.535 -11.868 16.033 -20.322 29.475 -20.322 c 12.266 0 23.516 7.2 28.658 18.342 c 0.926 2.004 3.3 2.881 5.309 1.956 c 2.005 -0.926 2.881 -3.302 1.955 -5.308 C 74.503 14.478 60.403 5.455 45.027 5.455 c -17.837 0 -32.947 11.873 -37.859 28.129 c -1.224 -1.611 -3.48 -2.084 -5.247 -1.008 c -1.887 1.148 -2.486 3.609 -1.338 5.496 l 5.481 9.007 c 0.014 0.023 0.035 0.041 0.049 0.063 c 0.125 0.195 0.268 0.375 0.424 0.545 c 0.036 0.039 0.064 0.085 0.101 0.122 C 6.835 48.009 7.053 48.186 7.288 48.34 z" style="stroke: none; stroke-width: 1; stroke-dasharray: none; stroke-linecap: butt; stroke-linejoin: miter; stroke-miterlimit: 10; fill: rgb(255,255,255); fill-rule: nonzero; opacity: 1;" transform=" matrix(1 0 0 1 0 0) " stroke-linecap="round" />
	<path d="M 89.416 51.929 l -5.48 -9.008 c -0.014 -0.023 -0.035 -0.04 -0.049 -0.063 c -0.125 -0.195 -0.268 -0.375 -0.424 -0.546 c -0.035 -0.039 -0.063 -0.084 -0.1 -0.121 c -0.197 -0.199 -0.415 -0.376 -0.65 -0.531 c -0.061 -0.04 -0.129 -0.067 -0.192 -0.104 c -0.18 -0.105 -0.364 -0.201 -0.56 -0.277 c -0.093 -0.036 -0.19 -0.06 -0.287 -0.089 c -0.174 -0.053 -0.35 -0.098 -0.534 -0.127 c -0.049 -0.008 -0.095 -0.028 -0.144 -0.034 c -0.07 -0.008 -0.138 0.003 -0.208 -0.001 C 80.697 41.021 80.611 41 80.519 41 c -0.082 0 -0.159 0.019 -0.239 0.024 c -0.121 0.007 -0.24 0.018 -0.36 0.036 c -0.172 0.026 -0.338 0.065 -0.503 0.113 c -0.105 0.03 -0.209 0.058 -0.312 0.097 c -0.178 0.067 -0.344 0.152 -0.509 0.243 c -0.082 0.045 -0.166 0.082 -0.245 0.133 c -0.237 0.153 -0.46 0.326 -0.659 0.524 c 0 0 -0.001 0.001 -0.001 0.001 l 0 0 l 0 0 l -7.492 7.492 c -1.562 1.562 -1.562 4.095 0 5.656 c 1.148 1.15 2.822 1.446 4.249 0.904 c -4.535 11.868 -16.033 20.321 -29.475 20.321 c -12.707 0 -24.117 -7.563 -29.068 -19.268 c -0.861 -2.034 -3.209 -2.988 -5.242 -2.125 c -2.035 0.86 -2.986 3.207 -2.126 5.242 c 6.206 14.671 20.508 24.151 36.436 24.151 c 17.831 0 32.937 -11.864 37.854 -28.111 c 0.774 1.015 1.96 1.574 3.176 1.574 c 0.708 0 1.426 -0.188 2.075 -0.584 C 89.966 56.276 90.565 53.816 89.416 51.929 z" style="stroke: none; stroke-width: 1; stroke-dasharray: none; stroke-linecap: butt; stroke-linejoin: miter; stroke-miterlimit: 10; fill: rgb(255,255,255); fill-rule: nonzero; opacity: 1;" transform=" matrix(1 0 0 1 0 0) " stroke-linecap="round" />
</g>
</svg>