<svg xmlns="http://www.w3.org/2000/svg" width="48" height="48"><rect id="backgroundrect" width="100%" height="100%" x="0" y="0" fill="none" stroke="none"/><g class="currentLayer" style=""><title>Layer 1</title><path d="M16 14a8 8 0 1 1 16 0v5h4a3 3 0 0 1 3 3.001V38a3.003 3.003 0 0 1-3 3H12a3 3 0 0 1-3-3.001V22a3.003 3.003 0 0 1 3-3h4v-5zm1 0v5h14v-5a7 7 0 0 0-14 0zm15 6H12c-1.102 0-2 .898-2 2.001V38a2 2 0 0 0 2 2h24c1.102 0 2-.898 2-2.001V22a2 2 0 0 0-2-2h-4zm-8 6a1 1 0 0 1 1 1v7a1 1 0 0 1-2 0v-7a1 1 0 0 1 1-1z" id="svg_1" class="" fill-opacity="1" fill="#dc3c2c" stroke-opacity="1" stroke="#dc3c2c"/></g></svg>