<svg xmlns="http://www.w3.org/2000/svg" version="1.0" width="512.000000" height="512.000000" preserveAspectRatio="xMidYMid meet" style=""><rect id="backgroundrect" width="100%" height="100%" x="0" y="0" fill="none" stroke="none"/>


<g class="currentLayer" style=""><title>Layer 1</title><g transform="translate(0,512) scale(0.10000000149011612,-0.10000000149011612) " fill="#ffffff" stroke="none" id="svg_1" class="selected" fill-opacity="1">
<path d="M0 2560 l0 -2560 2560 0 2560 0 0 2560 0 2560 -2560 0 -2560 0 0 -2560z m2653 1407 c69 -53 67 -31 67 -671 l0 -576 576 0 c641 0 618 2 672 -68 39 -51 39 -133 0 -184 -54 -70 -31 -68 -672 -68 l-576 0 0 -576 c0 -641 2 -618 -68 -672 -51 -39 -133 -39 -184 0 -70 54 -68 31 -68 672 l0 576 -576 0 c-641 0 -618 -2 -672 68 -39 51 -39 133 0 184 54 70 31 68 672 68 l576 0 2 588 3 589 27 35 c55 72 152 88 221 35z" id="svg_2" fill="#ffffff" fill-opacity="1"/>
</g></g></svg>